<mxfile host="app.diagrams.net" modified="2024-06-20T06:48:32.983Z" agent="Mozilla/5.0 (Windows NT 10.0; Win64; x64) AppleWebKit/537.36 (KHTML, like Gecko) Chrome/125.0.0.0 Safari/537.36" etag="eZZuXZm8gzUIEcRStPHl" version="24.5.2" type="github">
  <diagram name="Page-1" id="wD-8uv_HLO9gvdmJCeTE">
    <mxGraphModel dx="875" dy="1564" grid="1" gridSize="10" guides="1" tooltips="1" connect="1" arrows="1" fold="1" page="1" pageScale="1" pageWidth="850" pageHeight="1100" math="0" shadow="0">
      <root>
        <mxCell id="0" />
        <mxCell id="1" parent="0" />
        <mxCell id="5xO4zUCTU97ihrAl-Xpu-1" value="&lt;h1 style=&quot;margin-top: 0px;&quot;&gt;Re-factoring goals&lt;/h1&gt;&lt;p&gt;1. Re use the code&lt;br&gt;2. clean the code&lt;br&gt;3. improve APIs performance&amp;nbsp;&lt;br&gt;4. cache the results&amp;nbsp;&lt;br&gt;5. use lazzy loading and use memo&lt;br&gt;6. Responsiveness&lt;/p&gt;" style="text;html=1;whiteSpace=wrap;overflow=hidden;rounded=0;" parent="1" vertex="1">
          <mxGeometry x="20" y="30" width="270" height="150" as="geometry" />
        </mxCell>
        <mxCell id="8uUWsJeZfMnWuA44fKmX-4" value="c&lt;span style=&quot;color: rgba(0, 0, 0, 0); font-family: monospace; font-size: 0px; text-align: start; text-wrap: nowrap;&quot;&gt;%3CmxGraphModel%3E%3Croot%3E%3CmxCell%20id%3D%220%22%2F%3E%3CmxCell%20id%3D%221%22%20parent%3D%220%22%2F%3E%3CmxCell%20id%3D%222%22%20value%3D%2211.%20Dividers%22%20style%3D%22text%3Bhtml%3D1%3Balign%3Dleft%3BverticalAlign%3Dtop%3BwhiteSpace%3Dwrap%3Brounded%3D0%3B%22%20vertex%3D%221%22%20parent%3D%221%22%3E%3CmxGeometry%20x%3D%2250%22%20y%3D%22560%22%20width%3D%22140%22%20height%3D%2230%22%20as%3D%22geometry%22%2F%3E%3C%2FmxCell%3E%3C%2Froot%3E%3C%2FmxGraphModel%3E&lt;/span&gt;" style="rounded=0;whiteSpace=wrap;html=1;fillColor=none;" parent="1" vertex="1">
          <mxGeometry x="30" y="250" width="200" height="520" as="geometry" />
        </mxCell>
        <mxCell id="8uUWsJeZfMnWuA44fKmX-5" value="&lt;b&gt;List of commonly used major compoents&lt;/b&gt;" style="text;html=1;align=center;verticalAlign=middle;whiteSpace=wrap;rounded=0;" parent="1" vertex="1">
          <mxGeometry x="47.5" y="260" width="165" height="30" as="geometry" />
        </mxCell>
        <mxCell id="8uUWsJeZfMnWuA44fKmX-6" value="1. Drop downs" style="text;html=1;align=left;verticalAlign=top;whiteSpace=wrap;rounded=0;" parent="1" vertex="1">
          <mxGeometry x="40" y="310" width="140" height="30" as="geometry" />
        </mxCell>
        <mxCell id="8uUWsJeZfMnWuA44fKmX-7" value="2. Headings" style="text;html=1;align=left;verticalAlign=top;whiteSpace=wrap;rounded=0;" parent="1" vertex="1">
          <mxGeometry x="40" y="340" width="100" height="30" as="geometry" />
        </mxCell>
        <mxCell id="8uUWsJeZfMnWuA44fKmX-8" value="3. Tables" style="text;html=1;align=left;verticalAlign=top;whiteSpace=wrap;rounded=0;" parent="1" vertex="1">
          <mxGeometry x="40" y="370" width="130" height="30" as="geometry" />
        </mxCell>
        <mxCell id="8uUWsJeZfMnWuA44fKmX-9" value="4.&amp;nbsp; List of files" style="text;html=1;align=left;verticalAlign=top;whiteSpace=wrap;rounded=0;" parent="1" vertex="1">
          <mxGeometry x="40" y="400" width="120" height="30" as="geometry" />
        </mxCell>
        <mxCell id="8uUWsJeZfMnWuA44fKmX-10" value="5. Drop zone" style="text;html=1;align=left;verticalAlign=top;whiteSpace=wrap;rounded=0;" parent="1" vertex="1">
          <mxGeometry x="40" y="430" width="130" height="30" as="geometry" />
        </mxCell>
        <mxCell id="8uUWsJeZfMnWuA44fKmX-11" value="6. Buttons" style="text;html=1;align=left;verticalAlign=top;whiteSpace=wrap;rounded=0;" parent="1" vertex="1">
          <mxGeometry x="40" y="460" width="130" height="30" as="geometry" />
        </mxCell>
        <mxCell id="8uUWsJeZfMnWuA44fKmX-12" value="7. Switches" style="text;html=1;align=left;verticalAlign=top;whiteSpace=wrap;rounded=0;" parent="1" vertex="1">
          <mxGeometry x="40" y="490" width="140" height="30" as="geometry" />
        </mxCell>
        <mxCell id="8uUWsJeZfMnWuA44fKmX-13" value="8. Conversation History" style="text;html=1;align=left;verticalAlign=top;whiteSpace=wrap;rounded=0;" parent="1" vertex="1">
          <mxGeometry x="40" y="520" width="150" height="30" as="geometry" />
        </mxCell>
        <mxCell id="8uUWsJeZfMnWuA44fKmX-14" value="9. Search bar" style="text;html=1;align=left;verticalAlign=top;whiteSpace=wrap;rounded=0;" parent="1" vertex="1">
          <mxGeometry x="40" y="550" width="120" height="30" as="geometry" />
        </mxCell>
        <mxCell id="8uUWsJeZfMnWuA44fKmX-15" value="10. Text field" style="text;html=1;align=left;verticalAlign=top;whiteSpace=wrap;rounded=0;" parent="1" vertex="1">
          <mxGeometry x="40" y="580" width="140" height="30" as="geometry" />
        </mxCell>
        <mxCell id="8uUWsJeZfMnWuA44fKmX-16" value="11. Dividers" style="text;html=1;align=left;verticalAlign=top;whiteSpace=wrap;rounded=0;" parent="1" vertex="1">
          <mxGeometry x="40" y="610" width="140" height="30" as="geometry" />
        </mxCell>
        <mxCell id="8uUWsJeZfMnWuA44fKmX-17" value="12. Chat bot screen" style="text;html=1;align=left;verticalAlign=top;whiteSpace=wrap;rounded=0;" parent="1" vertex="1">
          <mxGeometry x="40" y="640" width="140" height="30" as="geometry" />
        </mxCell>
        <mxCell id="8uUWsJeZfMnWuA44fKmX-18" value="" style="rounded=0;whiteSpace=wrap;html=1;fillColor=none;" parent="1" vertex="1">
          <mxGeometry x="380" y="-90" width="780" height="310" as="geometry" />
        </mxCell>
        <mxCell id="8uUWsJeZfMnWuA44fKmX-19" value="&lt;b&gt;Order : in which i will be refactoring&lt;/b&gt;" style="text;html=1;align=center;verticalAlign=middle;whiteSpace=wrap;rounded=0;" parent="1" vertex="1">
          <mxGeometry x="697.5" y="-80" width="165" height="30" as="geometry" />
        </mxCell>
        <mxCell id="8uUWsJeZfMnWuA44fKmX-24" style="edgeStyle=orthogonalEdgeStyle;rounded=0;orthogonalLoop=1;jettySize=auto;html=1;exitX=0.5;exitY=1;exitDx=0;exitDy=0;entryX=0.5;entryY=0;entryDx=0;entryDy=0;" parent="1" source="8uUWsJeZfMnWuA44fKmX-20" target="8uUWsJeZfMnWuA44fKmX-21" edge="1">
          <mxGeometry relative="1" as="geometry" />
        </mxCell>
        <mxCell id="8uUWsJeZfMnWuA44fKmX-20" value="1. Creating common headings switches and buttons component" style="rounded=1;whiteSpace=wrap;html=1;fillColor=none;align=center;verticalAlign=top;" parent="1" vertex="1">
          <mxGeometry x="410" y="-20" width="220" height="40" as="geometry" />
        </mxCell>
        <mxCell id="8uUWsJeZfMnWuA44fKmX-25" style="edgeStyle=orthogonalEdgeStyle;rounded=0;orthogonalLoop=1;jettySize=auto;html=1;exitX=0.5;exitY=1;exitDx=0;exitDy=0;entryX=0.5;entryY=0;entryDx=0;entryDy=0;" parent="1" source="8uUWsJeZfMnWuA44fKmX-21" target="8uUWsJeZfMnWuA44fKmX-22" edge="1">
          <mxGeometry relative="1" as="geometry" />
        </mxCell>
        <mxCell id="8uUWsJeZfMnWuA44fKmX-21" value="2. Creating common divider&amp;nbsp; component and text field and search bar" style="rounded=1;whiteSpace=wrap;html=1;fillColor=none;verticalAlign=top;align=center;" parent="1" vertex="1">
          <mxGeometry x="410" y="40" width="210" height="50" as="geometry" />
        </mxCell>
        <mxCell id="8uUWsJeZfMnWuA44fKmX-26" style="edgeStyle=orthogonalEdgeStyle;rounded=0;orthogonalLoop=1;jettySize=auto;html=1;exitX=0.5;exitY=1;exitDx=0;exitDy=0;entryX=0.5;entryY=0;entryDx=0;entryDy=0;" parent="1" source="8uUWsJeZfMnWuA44fKmX-22" target="8uUWsJeZfMnWuA44fKmX-23" edge="1">
          <mxGeometry relative="1" as="geometry">
            <Array as="points">
              <mxPoint x="490" y="160" />
            </Array>
          </mxGeometry>
        </mxCell>
        <mxCell id="8uUWsJeZfMnWuA44fKmX-22" value="3. Creating common dropdown components" style="rounded=1;whiteSpace=wrap;html=1;fillColor=none;verticalAlign=top;align=center;" parent="1" vertex="1">
          <mxGeometry x="410" y="110" width="160" height="40" as="geometry" />
        </mxCell>
        <mxCell id="8uUWsJeZfMnWuA44fKmX-28" style="edgeStyle=orthogonalEdgeStyle;rounded=0;orthogonalLoop=1;jettySize=auto;html=1;exitX=1;exitY=0.5;exitDx=0;exitDy=0;entryX=0;entryY=0.5;entryDx=0;entryDy=0;" parent="1" source="8uUWsJeZfMnWuA44fKmX-23" target="8uUWsJeZfMnWuA44fKmX-27" edge="1">
          <mxGeometry relative="1" as="geometry" />
        </mxCell>
        <mxCell id="8uUWsJeZfMnWuA44fKmX-23" value="4. Creating common table component using above cewly created compoents" style="rounded=1;whiteSpace=wrap;html=1;fillColor=none;verticalAlign=top;align=center;" parent="1" vertex="1">
          <mxGeometry x="410" y="170" width="230" height="40" as="geometry" />
        </mxCell>
        <mxCell id="8uUWsJeZfMnWuA44fKmX-30" style="edgeStyle=orthogonalEdgeStyle;rounded=0;orthogonalLoop=1;jettySize=auto;html=1;exitX=0.5;exitY=0;exitDx=0;exitDy=0;entryX=0.5;entryY=1;entryDx=0;entryDy=0;" parent="1" source="8uUWsJeZfMnWuA44fKmX-27" target="8uUWsJeZfMnWuA44fKmX-29" edge="1">
          <mxGeometry relative="1" as="geometry" />
        </mxCell>
        <mxCell id="8uUWsJeZfMnWuA44fKmX-27" value="5. creating common list of files" style="rounded=1;whiteSpace=wrap;html=1;fillColor=none;verticalAlign=top;align=center;" parent="1" vertex="1">
          <mxGeometry x="680" y="160" width="200" height="40" as="geometry" />
        </mxCell>
        <mxCell id="8uUWsJeZfMnWuA44fKmX-32" style="edgeStyle=orthogonalEdgeStyle;rounded=0;orthogonalLoop=1;jettySize=auto;html=1;exitX=0.5;exitY=0;exitDx=0;exitDy=0;entryX=0.5;entryY=1;entryDx=0;entryDy=0;" parent="1" source="8uUWsJeZfMnWuA44fKmX-29" target="8uUWsJeZfMnWuA44fKmX-31" edge="1">
          <mxGeometry relative="1" as="geometry" />
        </mxCell>
        <mxCell id="8uUWsJeZfMnWuA44fKmX-29" value="6. creating common drop zone&amp;nbsp;" style="rounded=1;whiteSpace=wrap;html=1;fillColor=none;verticalAlign=top;align=center;" parent="1" vertex="1">
          <mxGeometry x="680" y="100" width="200" height="40" as="geometry" />
        </mxCell>
        <mxCell id="8uUWsJeZfMnWuA44fKmX-34" style="edgeStyle=orthogonalEdgeStyle;rounded=0;orthogonalLoop=1;jettySize=auto;html=1;exitX=0.5;exitY=0;exitDx=0;exitDy=0;entryX=0.5;entryY=1;entryDx=0;entryDy=0;" parent="1" source="8uUWsJeZfMnWuA44fKmX-31" target="8uUWsJeZfMnWuA44fKmX-33" edge="1">
          <mxGeometry relative="1" as="geometry" />
        </mxCell>
        <mxCell id="8uUWsJeZfMnWuA44fKmX-31" value="7. creating chatbot component using newly created componets" style="rounded=1;whiteSpace=wrap;html=1;fillColor=none;verticalAlign=top;align=center;" parent="1" vertex="1">
          <mxGeometry x="680" y="45" width="200" height="40" as="geometry" />
        </mxCell>
        <mxCell id="8uUWsJeZfMnWuA44fKmX-36" style="edgeStyle=orthogonalEdgeStyle;rounded=0;orthogonalLoop=1;jettySize=auto;html=1;exitX=1;exitY=0.5;exitDx=0;exitDy=0;entryX=0;entryY=0.5;entryDx=0;entryDy=0;" parent="1" source="8uUWsJeZfMnWuA44fKmX-33" target="8uUWsJeZfMnWuA44fKmX-35" edge="1">
          <mxGeometry relative="1" as="geometry" />
        </mxCell>
        <mxCell id="8uUWsJeZfMnWuA44fKmX-33" value="8. creating conversation history component" style="rounded=1;whiteSpace=wrap;html=1;fillColor=none;verticalAlign=top;align=center;" parent="1" vertex="1">
          <mxGeometry x="680" y="-10" width="200" height="40" as="geometry" />
        </mxCell>
        <mxCell id="8uUWsJeZfMnWuA44fKmX-35" value="9. creating common forms for chatbot and QA bot so that can be used to edit and create&amp;nbsp;" style="rounded=1;whiteSpace=wrap;html=1;fillColor=none;verticalAlign=top;align=center;" parent="1" vertex="1">
          <mxGeometry x="930" y="-10" width="200" height="60" as="geometry" />
        </mxCell>
        <mxCell id="fsgfs2xmXY5ecEChdCuf-1" value="13. Page headers" style="text;html=1;align=left;verticalAlign=top;whiteSpace=wrap;rounded=0;" parent="1" vertex="1">
          <mxGeometry x="40" y="670" width="140" height="30" as="geometry" />
        </mxCell>
        <mxCell id="fsgfs2xmXY5ecEChdCuf-2" value="&lt;span style=&quot;color: rgba(0, 0, 0, 0); font-family: monospace; font-size: 0px; text-align: start; text-wrap: nowrap;&quot;&gt;%3CmxGraphModel%3E%3Croot%3E%3CmxCell%20id%3D%220%22%2F%3E%3CmxCell%20id%3D%221%22%20parent%3D%220%22%2F%3E%3CmxCell%20id%3D%222%22%20value%3D%2211.%20Dividers%22%20style%3D%22text%3Bhtml%3D1%3Balign%3Dleft%3BverticalAlign%3Dtop%3BwhiteSpace%3Dwrap%3Brounded%3D0%3B%22%20vertex%3D%221%22%20parent%3D%221%22%3E%3CmxGeometry%20x%3D%2250%22%20y%3D%22560%22%20width%3D%22140%22%20height%3D%2230%22%20as%3D%22geometry%22%2F%3E%3C%2FmxCell%3E%3C%2Froot%3E%3C%2FmxGraphModel%3E&lt;/span&gt;" style="rounded=0;whiteSpace=wrap;html=1;fillColor=none;" parent="1" vertex="1">
          <mxGeometry x="430" y="270" width="780" height="290" as="geometry" />
        </mxCell>
        <mxCell id="fsgfs2xmXY5ecEChdCuf-3" value="&lt;b&gt;List of parameters for table/list&lt;/b&gt;" style="text;html=1;align=center;verticalAlign=middle;whiteSpace=wrap;rounded=0;" parent="1" vertex="1">
          <mxGeometry x="765" y="280" width="165" height="30" as="geometry" />
        </mxCell>
        <mxCell id="2GCgo0uBYDXy8U-ablGI-1" value="" style="shape=image;verticalLabelPosition=bottom;labelBackgroundColor=default;verticalAlign=top;aspect=fixed;imageAspect=0;image=data:image/png,iVBORw0KGgoAAAANSUhEUgAABn8AAABSCAYAAACVOsG4AAAAAXNSR0IArs4c6QAAAARnQU1BAACxjwv8YQUAAAAJcEhZcwAAEnQAABJ0Ad5mH3gAABjuSURBVHhe7d1drF3leSfw13ZtPmzTwRCwU9KQ4EZ0QpIOo1BwL7iIVBjBIEFFelFykV7ELkpKE4dMURXF1SSi04QQkogCGk1mFHLRWMUSExRSBSlc1FBIaJOQNmpxQgoTPgJ4gjHg48Ee/sv7PSwv733OPvscn499fj9pae/1sddea3/pedfzPu9esWnjpsMFAAAAAACAsbCydwsAAAAAAMAYkPwBAAAAAAAYI5I/AAAAAAAAY0TyBwAAAAAAYIxI/gAAAAAAAIwRyR8AAAAAAIAxsmLTxk2He/dn7ZRTTinr1q0vJ550UlmzZk1ZuXJlWbFiRW8tAAAAAADA8nP48OFy6NChMjExUV595ZXy0kv7yosvvthbO/dmnfxZtWpVOf30N5VTN2woEwcOlJdffrkcOPBqOThxsDmRnBAAAAAAAMBylUKZFMysXrO6nHDCieXkk08ua044oex94YXy3HO/KK+99lpvy7kxq+TPvzv11LJx46ay/6WXyou//GWTsQIAAAAAAGBqGUHtlF/91bJ23bry9NNPlf+7d29vzeyNnPx585t/rZx08snlheefK6++8mpvKQAAAAAAAMM68aQTy4bTTi+vvPxy+fnP/09v6eyMlPw56y2/XlatWll+8cyzhnUDAAAAAACYhQwL96YzzyivvXaoPPnEv/WWjm5l73ZoqfhJ4ufZp5+R+AEAAAAAAJil5FuSd0n+JXmY2ZpR8if/8ZOh3lLxAwAAAAAAwNxJ/iV5mORjZmPo5M+qVavKxo2bmv/4UfEDAAAAAAAwt5J/SR4m+ZjkZUY1dPLn9NPfVPa/9FJ59ZVXe0sAAAAAAACYS8nDJB+TvMyohk7+nLphQ3nxl7/szQEAAAAAAHA8JB+TvMyohkr+nHLKKWXiwIEyMTHRWwIAAAAAAMDxkHxM8jLJz4xiqOTPunXry8svv9ybAwDG2RWHDjXTib15AAAAAOZf8jLJz4xiqOTPiSedVA4c8F8/ADDuvvT/JsonXjvYTP/r4EQ5vRzurQEAAABgPiUvk/zMKIZK/qxZs6YcnDjYmwMAxtF/PHyo/IfDbyR7fq0cLlsOHerNAQAAADCfkpdJfmYUQyV/Vq5cWQ65+AMAY+1A77btQFnRuwcAAADAfEpeJvmZUQz1qBUrVpTDrZ7AAMD4eXTFyvLtlat6c6X8w+vzD4wYYAAAAAAwO8nLJD8zCld0AIBJO1b9Srn+V1Y300den17sLQcAAABg6ZD8AQCO8kAqfl6fAAAAAFiaXNkBAAAAAAAYI5I/AAAAAAAAY0TyBwAAAAAAYIxI/gAAAAAAAIwRyR8AAAAAAGDefPRjHy0//pcflz0/3dNMN/7Fjb01o/nW335rch9XXnll+cGjP5iT/S5lkj8AAAAAAMC8Of/888vq1at7c0fmR3HRlovK7gd2l82/sbm3hEryBwAAAAAAmBdJ2JxzzjnN/cf+9bHmdtObNzUVO3Nh165d5d3nvbuc87Zzyg1/ekNv6fKzIMmflGCl5CqlV903tK7LLSwn3VLH9pTlWb/YzLaEMo9PZr7+Dsx2fwAADK8df371zq/2lh5R1y2GODRxYY2LZxonal8eLa+DOBsAWGgXXnhh2XDahrJ///7yzW9+s7ldu3ZtueC3L+ht8YZa2VNjwXZ8mmuJt99xezlz45nN/Pt///3NtcVPf+bTA68xdmPL7DvPUbXj4Gxb95OpGzNnfqp9LbQFrfzJG3rV713VmwMGSQnkhz/y4bFqqOWH9Mb/dmNZt35dbwkAAAvlPb/1nskOOYtJjumyyy/rzZVy8ODB8uyzz/bmGJbhUACAxaQO+fbUz58qX7j5C81tXd7WTe5EHrd129aROiglWZMEUVv2nefoxsJ5nmybHEa15Xe2TF6fzb4y35Z93XTTTYsmAbTgw76994L3LnhPMlhM0qD98pe+3JQlZrrmD64pzzz9TLMuDd/F1Cif6xJKJZkAAAsjjdptf7StN7f41Bj53HecW27+/M29pQAALDVJjNQh32qnnkceeaS57Q79lsKRxKmpDPr4xz7eXDPMMHFJzFx66aXNtcStH9o6ee3063/99eba4ve++71mvi05iOQiYvff7T7quuugWDjPle3y3DmGqAmqM844o7mt+0qsmpg1FU2pbFoMFjz5U9+o6dRy/X4lVPlApPyqW4pVS8Dq+vaytvb67r5hoT2w+4Hy2b/8bN/yx2E+u8OWH3a3y3yV70wtd/zO/d9p1uf+bXfcNvn8Nevd3vaO/35Hc1v3WbfJbSqZ8v3POX3u859rvuPt86nbVpmv+8nUPY96/Fl+yxdvmdwuz9/9zgMAcKy3nv3WoeKmbtusHTfO1FQxXtYlTky8mLgx8eOgWDayPOvrvqYa6m2Yc+jurxtXtuPPekz94tm6XZ6z3q/z7fXtZW3tY+0eQ/v5EgP3O/9s0284lCyP9v7bjwMAOB7qkG9JlNSkz0N//1Dfa581wfL9f/x+k+iJS373kibZktuZqNVGSfbceuutzbJcd73//vub+93EU47v3nvvbe7nuWt1UlUTV6n+SQyV/aej0mLqrLSgyZ+8oXkRU3revdDbluCzW56ewHXHjh29uSPy5rVLsTL/wT/8YDO0VHdZfSMTOLfXx6BSL1go7R+Yml0e5rObhuQw5Yf5jnW3y3we35bvz1t+/S3N/YmJifLcL55r7veTbd/3vvc1t1W+n1N91wfJcQxbkpnll//ny3tzx37nAQA4WtpkaZslbrr66qunTa5022aJG0dJGMwkxptOji0xbh5f5Ti7xzrsOeT52wmTyOsz6hAjkedsx9yZ/94j3ztmWY3B+x1rjmHQcNCJgbvn343nu/q1tTM/yvsJADCMmoSpcU0SJ7XDT10fiYXWr1/f3J9L+/bta5I+VZI4iYdnKgmkWnEUielyLu1ONgttQZM/uZj9s8d/1ty/+OKLmze0Ky9Usm5pjNTSrpRSRd787mNqKVZKvCIfmjxHe9maNWvK2W87u7mfqqN80Gp5VqbsI4/zf0QsJt2xzYf57A5TfpjGa3p5Rr4j2a5+V/qN/V6/Y4NKKNvqtu2h6/IDniHd6rHU7/agbH2Ob6Ylmd3zyHb9/jAOAIAjHnzwwSY2S/Lgiiuu6C092rXXXtusz3Z1mOIa0yVhMJNOPsPEeIkZ6xAb9Tm3XLTlqMZ6VXuQRo0F67G1DXsO0w0xMor6nO3YeO26tccsqzF83occa5ZnfY6hxrf92s91u/a+MqTK08883Xc4lCyvF1S68XPa4IvlogUAMD4Sv9Qh3wap1eiJ+ZKomWvdnEJir8R4M5XjS2yaGKrGitG+NrvQFnzYt9v+6rYmoE5Qm0C8q/4HSKYkbFLm3u4Z1dUtFYt+y6ImlqJm5jLVnk816GZxue5Prmum5WzYz+4w5Yf1By6NwbvvvrtZloZ2frTyvasllZEGay13nE5726lKKKdTewPk+IYpyWyfR/c7DwDQJq58wz//0z+Xhx96uLmf/5nstoXaDfVsV2PJ3NYOfbWX5jBmGuNNp72/Ggu2jy1mcg71/OdiiJHqhedfaJJsOc89e/YMXFbVY0lb+c6v3dnE87VSat36dWXjmRub+1Veu+yn3776yXb1gkr2m/1Hv3YAADA3lnv82R7yrXbEqVPt9JOYrsZB9dpmu4N6KpsTt+xuDb1bnXXWWb17x0qOIM/bzkPk8elUEylUGTb+yePy/DmOWmmdGLEmgBZLXmHBkz95QRNQR97EbilX+4VMGVje/EHy5nWrI/otG1a/yiIWVn4c//i6P26m5fZDOZMfjfrZHab8cKofxdnIsHCP//Tx3tzoJZTVXJVkAgDEco4rB7nrb+5qGtzprXjRRYPbQU8++WTv3hGjtrfieMd4g45tqnNIHN1tl86F7rlGv2XDaI9mMRu1M2ZVk0C7+1xMAQBmR/z5Roed2gGmLXmC+rcX6bCTWKQdn2ZouMQptTCkdnxpy7oUj1zyn47trNPu8FOvkaaDTZJBeY7ERcPK89ZOS3VfmWrH/FqMstAWPPkT9QJ13sS82G211D1qKXqGBZhrdd/tadCQAiyM+gNZLacfynYDtPvjMdVnN9N05Yfdhu9c6TZIa4XRqLrJ2NnuDwBYvpZzXDmVNLjv+cY9zf38z+OgWKvbeWg2PRvnKsYbFNMOOrapziExdK2IWQzqUMrtaa7+SDjveap8ss/2cHFpgw8a/g8AmDnx55Hrm7UKe1AHmHrds/5lRWKV9vC1Va6HZuSiyH527tw5VAeiVOfUYW6r7DvPkeeaiTx/d185hlQ01WNbaIsi+ZM3qGbKumpQnjch5fvtD8lstbOJdczkTOnllEzddH+Oyfzp/kBWy+WHcseOHZNZ6AxlNsxnt99nuV/5Ye1d2W7gZVzNZMkz5f4o0miv46HnWAaVUE7Xa3EuSzIBAJZ7XDmdtLm6jetIm60OJZb/6qkxYm7r/0fOpIfjXMd4g2Laemwxk3OolUDDDDHSHoKt/lfQXKjHUse9j0HHMBO1jZ3zyogA2V/+6yivz/bt2yff/+M1QgAALDfizyMSa9RO6oOG0a1/RdHu6NJ+XJ26yZVsm8fUx2770LbJDi7dbetz1KlbAFL31e1sk2PO9u1j7+6r+5iFtiiSP5EXql6Ubqs9uBLEpwyrlmLNlfwnSW0ktPefi+wpK2NxuOULt0x+iao6n3XjJEmTDHGYRlidaslgemLWRvB0n938aA1TfpgfpFryWId5yPPnOLJ8Nj9Yea7srx5bjrf7n0H1fNOArcfW1j6+2ZZkAgAsp7hyFIkhB/WcrMNutOPVGjemLVcb1kkkZF3iu0EJirmO8aaKaduGPYdhhhipCax+28yFmohrH2v3GEaRfaSTVzpg1SHY62vWjttrewEAmB3xJwtl0SR/ol7Mbkvw3R7mLcHvZz79mSYQr+Vfs5FGwu233X7U82bfn/rkp1QTsGjkM5k/PauN0Rjms5vthyk/TMa6O5xiGr+DsvDDyPPcd999k8eX2xxvjjtyW/9UeDo5jrkqyQQAYGrtREpb4q70oOx22kscOUrcONcxXvbXPrbc7x7rsOeQ7aYbYiSv0667jj7OxL+JyedCkjvtSpyqfQzDGpTU+8A1HzimHZDjv+G/3DAZtwMAsDSt2LRx0+He/YHeed67yk8eO7YqBxZCeqRFO1vO4pEhKbZu29rcbyd7AAAWG3ElAADzSfzJKN6+eXP50aM/7M0Nb1FV/sBs5Mez/oACAMCoxJUAAMwn8SfHg+QPAAAAAADAGJH8AeZUhnk79x3nNpMh3wAAAAAA5p/kDwAAAAAAwBiR/GHJyR+i+VM0AABmS1wJAMB8En8ynyR/AAAAAAAAxsiCJn+uvPLK8oNHf1B2P7C7XLTlot7SY2VdtrnxL27sLZmZ+jx7frrnmCnLsx4Wk6/e+dXm8zndZz7rp/v+TKU+T78p6wAAGF9pB333ke+Wj37so70li9t0se9sY+P59K2//VYzReLuuTjupfZ+AgBwfC1o8ueq37uqvLTvpbJu/bpyxRVX9JbOvV27dpV3n/fuybK6TB//2MfL/v37y/f/8fvNepam6/7kuslkRVXns24pSqPtN//9b5Yn/u2JcvHFFx/XxusHrvnAUd+LTLv/bnfz3bjrb+7qbQUAMP7GMa4EAGDxEn9yvC1Y8icXtM8555xy//33l6d+/lQ5//zze2uOlu1uuummcubGM8v7f//9k9UIWZ7eUfULUXtNDSOPvf4T1zeJp1tvvbW3lKXoli/cUr54yxd7c2/Isqxbii747QvKxIGJct999zWJ0QsvvLC35mjp2ZjvRL4bt99x+2QFW5bX78WP/+XHM+r5l8du+Z0t5Z5v3CMpCgAsK+MYV86FdmyZqT1yQuLM79z/nWbKutomy23d/u7/fXfzmOyn6u6zvS77TAxb19X2X7bpF/tWg9a3n2u62DiPaY8Y0W5j5jgy3z637DvL+20f7W37rR9kquOI9n7r+5Hpz//rn5dTTz21fPgjHz7qNQUAFifxJ8fbgiV/ckF7zQlrykN//1B55JFHyqY3b5oM0Nse2P1A2b59e3nm6WfK1//6602lQk0I7du3r6lUuOYPrinr168fOpjesWNHc1H9s3/52Wb/LG3dH8ql/gOZROiePXvKt7/97SZBOSgxesOf3tB8J/Ld2PqhrU2yJo28K6+6snz5S19uvhu77tpVtm7bOlQCKNvksan8yb4BAJabcYsrZ6sbW2b0hNj2R9ua29i4aWN54oknmvWX/O4lTTIkbbtsm2UnnHBCWbt2bW/rI/u87PLLJtdn35lvYtHX24Mf/MMPNjFsfb73/NZ7msf0i33bZhsb1w6CGRki29Y2Zk0+xebf2Ny0XbM+MXOSTWecccbkeeS8677TNs3js5+sz7Hl8TmmqdQkTjpj9TuO3Lb3m+PNcT/9zNPlU5/8VNm7d29zLOJ5AFgaxJ8cTwuW/Ln00kvL88893wTld999d3ORO8PADSNDxCV5c9tf3dbMJ4Gzc+fOo4LtQRJsJ+hW2TBe6g/lUv+BzOc3n+M0KvO5TmVcGrz9EqNdabBmmLiHH3q43Pz5m5tlafT97PGfNd+3qeSxV199dXnh+RdUwwEAy9q4xJVzIbHkue84dzK2TPspoza0TUxMNLFrJKbM6A7ttta9995bDh482Nyv8Wp7ffadBEa/eDXbZPjuURIZs4mNI7H4lou2NJ0PqySW0naNnPP+/fub84sHH3ywadMmGRRJhOXxtbNhOj1m++mkTZzXuJ5zbetmWOh+bYIcX/t5AIClR/zJ8bIgyZ8EraedftpkoJxANZUOaSgkSJ/OWWed1QTW6d1UPf7Tx5uGx1Sa3mQqG8ZWfhyX+g9kqnzS2KsN1DQSI0PBTWfjmRubpOiTTz7ZW3LEs88+27s3mGo4AIA3jENcOZfSjqpDsaUj3SCJRzO6Qzv+bLfTaryaipk6bFmmDDscSfYkEVTXDzuyQz8zjY0TA6fjVY4lz50hxqdrm+a8cn5TqcPCfe7znzuqAmqQJI/yGtfXJlOGcVuzZk2zPv/LmfO682t3zniIZwBg8RJ/cjwsSPInvZnqWMQ1oE2QnfGZU9VzPCRwT2VDenq1e2/BYpGkaKp82o292khMr8VhEqOjSDXcW89+a/nK//jKZA9MAACoSZ+02+pQbI/962O9taPLEGjZV3tKpUykrZb5OkxaYuL20GvHUzoI5rkzbNqG0zY0CZZRE1A16ZP4PsPXZRqm8ifyGrdfm0ypgEqsXquhMuxbqvbz3rT/hwkAAKp5T/7kAnYqfFJ90w5mE7ymjH7Q/5u0pfdWejulN1d19tvOnuwN1U+tbKhDxcFiU6t76vjndUrDN43P/E/WVFIJl4q4VMa11aEn+qnVcO3hMAAAINI2S+e5xKTDjJyQeHTiwMRR8We7nTYoXu2nJmKaduOQI0S0jRIbV4mLM9xd4vAMyTzTxEpt8+bxNWkzrFQm5T99pjvfVCpluLe0HWKYkQIAAFhe5j35kwvYScLUcaGrWmY/THBd/yOo/tFoAuNU9bSHy2pT2cBSUId8635G83lPr77pEqP1O/TeC947OfxD/ezXIRbb6vdGNRwAAIO0ExGpZplq2LfEoxnO+7LLL5ts0+X/dVavXt3c7xevZt8ZYi37zmNSxZIYtq5LEiX7zGNnYpTYuB5HNSg+H1ZNPGXf13/i+qGGfavDul177bW9JUde9zoMXft+1KRPHS4aAACqeU/+JPhP4iZ/iNlVA9YMC9dWGxEZ+zll95nfvn170xBJKX3K8fft2zc5VEBXgvY0ONrDzNXJOMksBvkMpiHaTYpG/fxnyIhuYjTfmTQOv/I/v9LsIz0kMyRH/aynquf2227vmxRNIjYVRd0xxes0mzHWAQBYGlKV020n1TbSrbfe2myT9laWp2omlThTddhLp6IkTDJ8cR5z4MCBsnfv3sn/2km8mqrz+pzNvl+PdfO4JFnu+cY9k//5U9t5taNSN/btmk1snJh7586dTbIo22ZKezMjSMxUd185j4cffniokS7yGqTTYvs4kgBL+zf77b4nOafayTHT888935xvO4kFAMDytGLTxk2He/cHeud57yo/eWz2YzsDAACwfCRJ9Gef/LPytTu/ZphhAAAYwds3by4/evSHvbnhzXvlDwAAAOOn39BpGdUh/wPUb+QHAADg+JH8AQAAYNb6DZ3WHrIMAACYP4Z9AwAAAAAAWIQM+wYAAAAAAIDkDwAAAAAAwDiR/AEAAAAAABgjkj8AAAAAAABjRPIHAAAAAABgjEj+AAAAAAAAjBHJHwAAAAAAgDEi+QMAAAAAADBGJH8AAAAAAADGiOQPAAAAAADAGFmxaeOmw737A73zvHeVnzz2WG9udt6+eXPvHgAAAAAAwPiZy5zKjx79YW9uePOe/AEAAAAAAGB6oyZ/DPsGAAAAAAAwRiR/AAAAAAAAxojkDwAAAAAAwBiR/AEAAAAAABgjkj8AAAAAAABjo5T/Dx/vBO/qb8X9AAAAAElFTkSuQmCC;" vertex="1" parent="1">
          <mxGeometry x="443.5" y="360" width="753" height="37.13" as="geometry" />
        </mxCell>
        <mxCell id="2GCgo0uBYDXy8U-ablGI-2" value="&lt;b&gt;Library table&lt;/b&gt;" style="text;html=1;align=center;verticalAlign=middle;whiteSpace=wrap;rounded=0;" vertex="1" parent="1">
          <mxGeometry x="440" y="330" width="95" height="30" as="geometry" />
        </mxCell>
        <mxCell id="2GCgo0uBYDXy8U-ablGI-3" value="" style="shape=image;verticalLabelPosition=bottom;labelBackgroundColor=default;verticalAlign=top;aspect=fixed;imageAspect=0;image=data:image/png,iVBORw0KGgoAAAANSUhEUgAABoYAAABECAYAAACs7IdtAAAAAXNSR0IArs4c6QAAAARnQU1BAACxjwv8YQUAAAAJcEhZcwAAEnQAABJ0Ad5mH3gAABr+SURBVHhe7d1trBXVvcfxBcgBBVQQ4RyFikIbe0E0NCJgE+qbgqmSQoN9UUyK5golVgW0ljReMNXgrSJijeXYWppAXxRuISESoZGkvCggKvFZS0FAuApU4CrPhwiX32L+sM4we+/ZT+fsh+8n2Tl7ZvaZvfc5859Za/3XWtOhqbHptCuTTp06ud69r3Q9e/VyLSdOuKNHj7oTJ467ky0n3alTp9zp02V7awAAAAAAAAAAgIrXoUMH17FjR9e5obPr0qWru+SSS1xDly7u4IED7osv/u2+/vrr6JWlUbbE0OU9e7rGxiZ35PBh99WXX7qWlpZoCwAAAAAAAAAAADJpaGhwl152mevWvbvbs+dz938HD0ZbileWxNBVV13tLr7kEndg/xfu+LHj0VoAAAAAAAAAAACk1fXirq7XFb3dsaNH3Wef/W+0tjglTwz16/8N16lTR/fvvfuYKg4AAAAAAAAAAKAImmruyr593Ndfn3K7d30arS1cx+hnSWikkJJC+/bsJSkEAAAAAAAAAABQJOVblHdR/kV5mGKVLDGkewpp+jiNFAIAAAAAAAAAAEDpKP+iPIzyMcUoSWKoU6dOrrGxyd9TiJFCAAAAAAAAAAAApaX8i/IwyscoL1OokiSGeve+0h05fNgdP3Y8WgMAAAAAAAAAAIBSUh5G+RjlZQpVksRQz1693FdffhktAQAAAAAAAAAAoByUj1FeplBFJ4YuvfRS13LihGtpaYnWAAAAAAAAAAAAoByUj1FeRvmZQhSdGOrevYc7evRotAQAAAAAAAAAAIByUl5G+ZlCFJ0Y6nrxxe7ECe4tBAAAAAAAAAAA0BaUl1F+phBFJ4YaGhrcyZaT0RIAAAAAAAAAAADKSXkZ5WcKUXRiqGPHju7UqVPREgAAAAAAAAAAAMpJeRnlZwpRdGKoQ4cO7vTp09ESAAAAAAAAAAAAykl5GeVnClF0YggAAAAAAAAAAADVgcQQAAAAAAAAAABAnSAxBAAAAAAAAAAAUCdIDAEAAAAAAAAAANQJEkMAAAAAAAAAAAB1gsQQAAAAAAAAAABAnai4xNCav61x27Zvy/iY+9TcVq/TT5k+Y7r7eMvH/qHnAAAAKL20Za6k18XLbwBKZ/z48e7d999tVXdav2G9GzlqZPSKtqPPovfWz2ItXrK4Xb8LUKh424aO5bhiYkXX1r+v+ztxAWQRj8PwUevXlfa+fpb7HKj9Je0TtcPqk3YMWU6gUDombR865qzcXOx+qxkjhgAAAACgiqlC+8yzz7hu3bpFa87q29jXLfrToqxJ3FLTe83977mue4/u0Rqg/qjxadA3B0VLZ426dVSrRsxiYkUxf//P73cNDQ3RGgD50jVy3rx5JFfLoNznQO1f+0NtGzZsmOvcuXO0dHa5EIpxJSDjxyQqODG09V9b3cBrB17wmPXLWX77mO+P8cv6CQAAgMoy/9n57vpvXe8feg6gPNSwMn7C2Z626/+x/ly96YXfvuBOnjzpK9QTJ06k4QtoI4rJawZc458v/ctSH4+KTbnxphsL6hkPoDjxNkbFpvS6opcbMWKEf15r7p50t/+uo0aOchvWb4jWlh/nQJSCyq0DBw70zxW/0nRVU8mOnxUrVrihQ4b649NyDfWoakcM2ZBE/cwmHBqmR64hlOHrFzy/wL/efjfpvexz2CPcv+1Lw97Uo8f2a1OqhO8VTrNi8v3sAAAAlULlGpVvkso4Epah4mUc26b1Vhaycpjt135Xj3D4f/i+mmJH27ds3eI++udHF7xW7L2YigLVauzYsT75o0qzGoGMErJvbHrD7d2z182cOdM3CoX1izAGLS7i8WVxF8oWg/qpUQz6PBq9pFFM4T4UZ0m/Fwo/l84BXbt2jbYA1UWJ2X379vnny/+63B05csSP8Blw7YCcsRLGgcWCXScVR3f9+C7/XCMelvx5iV9n8RW+Noz5MN7isRj+DlAPNr2+ycekYrBPnz45r48Sj0vFUZziSPFkr9H1Ml4OTtPWlyZGc70m6Zxg30E/w9/X59HnCoXfN3x90mdJUo5zoB56biM/NGrI/sZJn49zYPVSwlaJWx03r776qv+pY2X4LcOjV5xnx4X9P8O40zHQ/FKzv16Krp86Jp548onEY0O0bPvSI358WFlYD702jGcdW6FKP9Zqeio5/aM0LDGcUkEHgg6I+AkvyR133nHuwBGdeMJ/sE5U8WFoev2cOXOipbN0otOBZ59Dy5Pvmdzqs9k6+1zFfnYAAIBKpfJTWIZSGSdpKg+tt7KQKpYqH02ZOsWXm0IaLWGFf6PX9P9Gf//8+PHjbufOnf55OAWBylRNVzX5iuvmzZujtUD1UMz06NHDP086hpUoytRT2GLQGm7CRhqj14QV2HxiME51p/i0L6ojZatf6Rww7DuFTRsCtJcd23e4lpYWHyeKKR3X1jM5zSjatO0MhVLMxWMx03UYqFVqXFYZM0xemPj1UXGha2E8LhVHilcTb4AWnQd03bRrpH7mautLE6PFxrG+S/j7+jyP/OKRVvsPv2/89dlwDkQp2DRyn3/2uXtu/nP+p60PpYm7fOj4sM4XRvtOao/X+4Tt/aJjyxJN1XCsVWxiSCeBMKOmR3jCTcN6z4VTKqgnnf5hE340IXpVZupdN+knk/xDz0XD2PTPs4YEZSwfnvFwq6GRqpzF/8E2bNWGq+oz7Nyxs9U6y5xLsZ8dAACgUqmirWmuwnKQCsnjxo3zz034OjVwWwXBykcqg6kspnXq7Rln5S9VRNesXuP3p/KbFeqtUUBlMqa7QzVq7NtY8L18rK6jRpqNGze60aNH+/U27YvVgcLYzBWDmorDprCzepKm/lbFXNPKhHUne51NK2P1K4nvH6gmagBd9cqqaOl820bYIz9TrKRpZ9D10K6dFsfhaMFc7HppcWafo5an1ALibYzW8JtUBgyvj9o2bdo0fy1UnFi51OJG+7VGYLXVqVwZxq/KorpGqo1P0rT1pYnRYuM4/C52jrHf1XlI12ax/edzPS7nOVDU4UV/M9G2fKet5hxY+XSts2nkLHFrHaB0fNhxJLniTsfjlPumnGvX1/VTdcO33nzLL4dUXr15+M3+uR0fVh7We0z92VS/LWT1zTBGLHlVDcdazY4YspOJKDtnJ3+dkMT+OdmsW7fO967TY9u2bdHasyzbrYeSORo+li17bgewDVeVpHVSis8OAABQqcJK+MqVK88V1Pv16+d/mnhlXQ1fKlTrpzoMJd1s36jQvXr16mjJ+YbvA/sP+NfbFARWaGe0EOqR1XVElVNVUkWNZap7aHoqNYSJxWY+MRiyhJJeq9/R/m10knWOs0St6kWackZU53rn7Xf8c6CaqNHTGpOMjm+NFMjWgznfdoZCWCObtTUoPtWwmm/jKlDt1FibdN/y8PoYNlBrelaLEf1UOVXijcC6bimWRfvXdTNMeki2tr40MVpsHIdlbJWDVW42Ovfo2lzM9ZhzIIph5VIdl/G2cx1H4XRyueIuHzoWVDbVcfviiy/6dToX6Jwgit8wKRXWN/XeNqrJVMOxVrGJIcu4hY98/6HZJI3qyYd+d300f6FVajLRgWIHg0lal1axnx0AAKA9hWUgFbYPHToULWUXzvdslei0wo4+KpSHIxhU0QCq0Z69e9zhQ4ejpfKxSncxMZiJ6lHZOr7t3r07egZUF1131LNdbRk2wkfHu40cSJJPO0Oh1NgVNtZag1XYmx+oNUltjPmMtJP49Sgszyp2bURLoaytL02MljOOdU1OOvfkez3mHIhCWYJGDx0H+v+EnZG0XUoRd0lUN9XxaxTrYfI0rWo41mr6HkPGpkMIH5nm2k5L0ylYDzrbv3oblFo5PjsAAEB7ChuB0xbo9Tqb6koFbPVCzGdaC7Eekertddttt/nKhnp2We8yoNqoTmCJVaskh5TIyafyqfiwqWXChzrolSIG7ffi+1fP4kyV7vhIQqDS6Z4CavhR46biRnSMp2kvaIt2hrCxVg+bkkkNbkxbD2QWvx6F5dnwepxGtra+NDHaHnGc9nrMORDF0DFjo/QyUec+dfLLN+7Sig/IyJQszaUajrWaTQyFQ7hUgdE/VA+dmHSC0omqGHZCVOVGU6CkOXDTKvdnBwAA5ffgQw/6By5khXmxCqAahLNN6RbeS8Wm+LCpp9IKp5MbPGSwf89wujnUrlqORx3DOpY1giesJyjGxk8Y74/38IbSSSw2VOm1nrxKJimppPqHEkz5xmB4/1RLyirW7X5FNvrIEld2s+qwsqz1dp8D1JZajknrVR8e79mO5TBW8m1nUEwqNkPhOsVSGKNJ7QpK/FpjVbbRe0A90rXORpzr3iNWfrWR52LlVxtBZPfOkzBJolG+udr60sRoueM4nLKrkOtxW54Dk74r58DqFk4jF++sZB2SVF61DlG54k7/81C2BGdYXtW9xUS/bx2j8ulQWC3HWk2PGLJKkv6hmiPb5snWQWTzZBYqPNGF+y6Vcn52AABQXmrseuDBB/yjVhu+wqH94UNzgVulOZPwd+3mv2qUVuN0JuGUWXYPFPvdtFS5tzmiJdd7ojbUejxqjnLd90Bsigo9FGOKNdUpli1b5o//TMLYUIJJv29TdljjTL4xaHGuSrHizO7FEP9dmxNeD7t/gX2PtPcwQnWp9ZgM751nx7sdy4rHeIeEMFZaTrb4dWnbGbRP7Vv3/LIGLVun91UshcJYD88XNjVktg4aqB3NLzWf+9/n+5j/XP3dg0VtcNYYbeVXu8aqkVejYcLXJcWgdajI1daXJkbLHceZrscnW9JNpdWW50Ars6izCefA2mDTyCXV08KBFEoYKvmSJu5C2qb66pjbL7xdjcrUVl614yOM0YW/W+i3pVEtx1pNJ4b0D21e2OxPDEb/yNmPzU6d4cskPgxSJ70nn3jS71+ZTWU4i1HOzw4AAMrHGrxMrTZ8FUOVaOstJSpHzZw584KCe0jbnv7N0748ZDTFhJXHkqbRSmK9IEU9QLO9J6pfvcSj7pOQNK2bYmvyTyenusGt6jeKqVAYm2ljMExUhcJekka/G97jQc/jdazNb9FIU0vqISYVK5o6Jn68K3ZmPTrrXDwmxcoffv+HVO0Mitf4/rW/FctbtxWsXbv2gvNCUqyr3UE9s62BG7Xtoosuip7lr0uXLtGz+qE2uKFDhiZew3RtM3rdlPum+LgNKd4sthSnudr60sRoueNY1+Pw++q7fvjhh9FSdm1xDlQDffzcxjmw+inRYyPE4vf5MZZQseMhTdxpP+okFcZdJorp+PGhfes98m2Pr4ZjrUNTY9Pp6HlBBg+5wX2ytXWwAwAA1KN4g1fo+QXPuwXPLYiW0F40mmnK1Cn+uSrmVjlF7SEegcpCTAKV4fLLL3crX1nprr766mhNOp/u/NTdeced7vDhs6NHUZs0Hdfjv37cj8BQcseSXxqZqNEO4ToAleG6QYPcB++/Fy2lR2IIAACgDDRUXDQfMtqfppgIp72iUltfiEegshCTQPu66aab3NL/Weo6deoUrclO94Cb8MMJ7qOPPorWoJZZEihJOBIDQGUoNDFU01PJAQAAAKIbk9r0AZoOYM6cOf45AABAvXn77bfdU3OfipZym/Nfc0gK1RF1nopPBSckhYDawoghAACAMqA3NFA5iEegshCTQGV4+Y8vu+/d9r1oKdmqVavcA/cnTwMJAGh/jBgCAACoAmoMswYxAO2LeAQqCzEJtK3pD013uz7dFS1dSKOEHn3k0WgJAFBLSAwBAAAAAAAAdearr75yk3862R06dChac96ePXvcvffc644dOxatAQDUEhJDAAAAAAAAQB3avn27+9WsX0VL5814aIa/LyMAoDZVbGJo/Pjx7t3333XrN6x3I0eNjNZeSNv0mrlPzY3W5Mfex4ashw+t13YAAABcaPGSxb7MlKscpu25ynTZ2PskPbQNqGeKgY+3fOymz5gerTnL6jmF1pPKQZ/pzc1vXvBZTa7taSXV8eLnCr2HXpPpvfT6Ys5bptj6KqqXXbuS/vdr/rbGP6RUxxpQDN1HKO7111+PngEAalHFJoYm/GiCO3zosOveo7sbN25ctLb0VqxY4YYOGepvemmPh2c87I4cOeLeefsdvx0AACBfVq6oVWp4/fZ/fNvPSz969OiyNmjdPenuVmU1Pdb/Y70vry3/6/LoVUBmdtzUqs6dO7uJEyfSsHyGGuGfefYZX5ez//ukn0xyAweeOW/Q+F4xaj0m2/IaCQAAUIiKTAyp0KSC+7p169znn33uhg0bFm1pTa+bN2+e69vY193147vO9QLTehX6rXeY9cRJQ7/7yC8e8UmpF198MVoLAACA0PBbhruWEy1u7dq1viPPiBEjoi2tqZFW5TSV15pfavaNZbbeympJox2y0e+OunWUW/XKKjrxAGdoqh/F4bRp06I1ycK400PLtj6cLcFG3Nh2UV3L6lu23fYT1rcybdP6x3/9uOvZs6e7/+f3t9q3ZNoe3599hiR67Q/u+IFb+pelPqFsNqzf4GbOnOmfZ/obhe+jc1L//v2jLWfF65jxJJO+p23TfrS/TPVV1L6010gAAID2UpGJIRWaGro0uE2vb3KbN292TVc1+YJ1nBXwVRGywr8VvnXjPOsd1qNHj9TJoTlz5viC29O/edrvHwAAABdSx51t27a51157zXeoydSRZ9YvZ/lymsprU+6b4hM5avAdP2G8e+G3L/jy2orlK9yUqVNSJYf0Gv2uRgxp3wCcr/soUXrz8JszxpHiTkkTzY6guFP8aVmvV72rpaXFDbh2gH+tGrW7devm+vXr55dVx1KiRHUz1cuUwNH7hfUtJT30OnWys9E64TbF/uzHZruDBw/6947Hb9J2ey/bnz77jTfdmDHBos8t+j5xqtup46E6IIYJHYm/T/PCZtfY1BhtPd8hUec8bddDf3PVHUWfR9/Tj0w6s0370d9B4vVV1Ie010gAAID2UpGJobFjx7r9X+z3lYOVK1f6gpSmlktD084psbPwdwv9sioAy5Yt88mlXI0NqiwN+uYgep8CAICSevChB8/1JDe2rG3VRmUqla3USGyNrWqsTerIE6cGVk2r88amN9z8Z+f7dWoA3rljpy8DZqPf1XRZB/YfYGQ3ClZr8WgsjpKmlLO4C+s5ij8lMBR3Wqf6lzVeKyGkKbCUDNLv2miHjRs3+nqZZnWwxI7VtzRt1ne/+12/zmjbqJGjCk6I2PTiFu/6nPoOmc43+tx6/Z69e6I1re3bt893QGzsez7pI5ZQsqkp9bfROcrY1ObheUf1zSt6X5FYx9T31ffW90duXCMBAADaXsUlhlRYUgF79erVflkFKd8zK6FnV5KkysCO7Tt8D7hsVHij9ykAACiHBc8tcM8veD5aOk/rtK3aqPFYDcOW2LHe+da4mo0aZNWJZ/fu3dGas9Rgmwsju1EKtRaPISUrFCPx6dIs7jSdmTW466EpGY1isE+fPr7OpYTQhg0bXEPD2SSKYn7Xrl0+7vQadaYL96Op3/Tarf/a6hvBtV+tL/aePnovjcwJ412fM1fdLl9JdcjwHKXtmg5uyZ+XnPvOuo9R9+7d/XYllPT31fZ8p8YE10gAAID2UHGJIfUKs3mlrdCtioUK4tZTq9RUWVHPOvWwY3g/AAAoh3jDV7U2eKkTj3o+hw3DaiDVtFPlvMG2RnZfM+Aat+iPixjZjaLVSjzG2YgaTSmX1Ait6cxsKjR7jPn+GL9NoxvUQe+WW27xSR41Zispo/1cdtllfrtRAii+n6FDhvr3Vyc7LWs6uF5X9PLJknzu+VoMJXOUoImPCDJKNOm+L5lGFGWj6eBsqjh7XP+t633jv763vr+2a0Sj6rJ2nyGkwzUSaH9btmyJnjn34QcfRs8AALWqohJDKiRpZJBG7YQFbhWwVRBPMy9vUmVAc2WrcpOJ9T616ecAAADKwRq+qrkR2hqb7T4l9lCDsxqBc91gWw2y6pmvHvghNdhmYiO7w+nngGLVQjwmsSnldP8gqwNliruQponTa2699VafEFKyQ6NzBg8e7Lp06eK3i9bpfjq5GrgVq0qc6NyQ6Z6xuSS9l84Vmep22UZmaB9qmNdsFPERh0l1yPBvlSvhZLRfTSGn86MwQiQ/XCOB9nX7mNvPHbN33nFntBYAUKsqKjGkQpIK3GFvNFEBW1MSpKlQ2D2Jpv5sql9WBUCjgcKh3CF6nwIAgLakxq5qboS2KXLi5SaVwdRTPldHHivXhTfJt/KYTSUcsrIcI7tRDtUej5lYh7fOnTv7n0lxp9jSVG+Llyz2y3rNiRMn3LDvDPMJGVFCZPCQwX5Z28WmTQunq9M+tK97//PeVvuUTOeMNOLvpbqgEl66N1LS/rROI6Y0ZV74GfRd582b558n3Z8sfl9b/Y30tzLxOqbovGWjguz7633EkgOWqEJ69X6NBAAAaCsVlRjSjU9V4LbeaCErVFth3aiCol5fKvxrigItz5w50/cs07BtTV2gHm82RUKcCmaqMIVT19mD+aEBAADOU7lICZx4Jx6xMlnSDbZVjlPj7qI/LfL70IiGFctXnCt/aTRQ88LmxE486jikXtbxe5rYo62mqAKqiSVIQoo7jbqzuPP3yzkTs2HCVbF98uTJczGu2D1y5IhPEBntW53qlDixONSsD6qDvfz7l92yZctabVO9TDM02O/u/2K//wxh4sbEt2t59mOz/XlF+9KUXEoKZUsS63tqtIb9jh72XTWaxxJcIa3TvcvsdybfM9lt+ef5KZVsuzoq2j6VoNJn02e0ZJN/nzPbdE6zjod2brT6KmpXoddIAACA9tChqbHpdPS8IIOH3OA+2bo1WgIAAAAAAAAAAEC5XTdokPvg/feipfQqasQQAAAAAAAAAAAAyofEEAAAAAAAAAAAQJ0gMQQAAAAAAAAAAFAnSAwBAAAAAAAAAADUCRJDAAAAAAAAAAAAdYLEEAAAAAAAAAAAQJ0gMQQAAAAAAAAAAFAnSAwBAAAAAAAAAADUCRJDAAAAAAAAAAAAdYLEEAAAAAAAAAAAQJ0gMQQAAAAAAAAAAFAnSAwBAAAAAAAAAADUCRJDAAAAAAAAAAAAdYLEEAAAAAAAAAAAQJ0gMQQAAAAAAAAAAFAnSAwBAAAAAAAAAADUiQ5NjU2no+cFGTzkBvfJ1q3RUnGuGzQoegYAAAAAAAAAAFB7SplT+eD996KltJz7f7w933wJ6/tSAAAAAElFTkSuQmCC;" vertex="1" parent="1">
          <mxGeometry x="443.5" y="430" width="756.5" height="30.81" as="geometry" />
        </mxCell>
        <mxCell id="2GCgo0uBYDXy8U-ablGI-4" value="&lt;b&gt;Documents table&lt;/b&gt;" style="text;html=1;align=center;verticalAlign=middle;whiteSpace=wrap;rounded=0;" vertex="1" parent="1">
          <mxGeometry x="440" y="400" width="120" height="30" as="geometry" />
        </mxCell>
      </root>
    </mxGraphModel>
  </diagram>
</mxfile>
